<?xml version="1.0" encoding="UTF-8"?>
<svg id="Capa_2" data-name="Capa 2" xmlns="http://www.w3.org/2000/svg" viewBox="0 0 726.96 133.69">
  <g id="Capa_1-2" data-name="Capa 1">
    <g>
      <g>
        <path d="M291.41,77.79l-.59,4.96c-3.64,1.55-7.33,2.32-11.06,2.32-4.67,0-8.53-1.33-11.56-4.01-3.16-2.79-4.73-6.49-4.73-11.11s1.7-8.83,5.1-12.02c3.31-3.12,7.4-4.69,12.29-4.69,3.28,0,6.57.68,9.88,2.05v4.46h-.87c-.24-1.79-1.4-3.16-3.46-4.1-1.61-.73-3.44-1.09-5.51-1.09-4.04,0-7.3,1.34-9.79,4.03-2.49,2.69-3.73,6.06-3.73,10.13s1.21,7.57,3.64,10.42c2.58,3,5.89,4.51,9.92,4.51,2.55,0,4.54-.45,5.96-1.34,1.43-.89,2.58-2.51,3.46-4.85l1.05.32Z"/>
        <path d="M313.94,83.84c-1.34.35-3.35.7-6,1.04-.15,0-.28-.06-.37-.18v-3.23c-2.61,2.28-5.07,3.41-7.37,3.41-1.31,0-2.34-.39-3.1-1.18-.76-.79-1.14-1.73-1.14-2.82s.33-2.02,1-2.87c1.03-1.33,2.75-2.49,5.17-3.46,1.81-.64,3.63-1.27,5.44-1.91v-2.96c0-1.15-.36-2.09-1.09-2.82-.73-.73-1.65-1.09-2.77-1.09-1.63,0-2.73.26-3.31.77-.33.3-.53.86-.59,1.68s-.23,1.38-.5,1.68c-.67.76-1.33,1.14-1.99,1.14-.58,0-.86-.35-.86-1.05,0-1.52,1.12-2.94,3.37-4.28,2.03-1.15,3.9-1.73,5.6-1.73,3.46.03,5.19,2.05,5.19,6.05v10.83c0,1.37.47,2.05,1.41,2.05h1.91v.91ZM307.57,79.89v-6.11c-2.81.97-4.56,1.63-5.25,1.99-2.14,1.15-3.21,2.51-3.21,4.08,0,.94.29,1.68.86,2.24.57.56,1.33.84,2.26.84,1.78,0,3.56-1.01,5.34-3.03Z"/>
        <path d="M339.06,73.51c0,3.09-1,5.76-3,8.01-2.09,2.34-4.66,3.5-7.71,3.5-1.27,0-2.94-.41-4.99-1.23v6.83c0,1.73.32,2.78.95,3.14.36.18,1.56.27,3.6.27v1.18c-3.4-.18-6.98-.2-10.74-.05v-1.14c2.09,0,3.14-.5,3.14-1.5v-22.39c0-1.18-.05-1.96-.14-2.32-.18-.7-.65-1.2-1.41-1.5-.33-.15-.77-.21-1.32-.18v-.96l5.55-1.32c.24,0,.36.64.36,1.91v1.77c1.58-1.24,2.75-2.06,3.5-2.46,1.3-.73,2.67-1.09,4.1-1.09,2.43,0,4.41,1,5.96,3,1.43,1.85,2.14,4.02,2.14,6.51ZM335.83,74.87c0-2.25-.57-4.17-1.72-5.78-1.27-1.82-2.98-2.73-5.12-2.73-1.69,0-3.57.79-5.62,2.37v12.2c.45.88,1.24,1.56,2.36,2.05.97.46,2,.68,3.08.68,2.24,0,4.01-.94,5.31-2.82,1.15-1.64,1.72-3.62,1.72-5.96Z"/>
        <path d="M352.76,84.39h-9.15v-1.09c1.33,0,2.06-.03,2.18-.09.42-.18.64-.82.64-1.91v-11.29c0-1.52-.17-2.53-.52-3.05-.35-.52-1.19-.88-2.53-1.09v-.73l5.64-1.14c.3.46.46,1.08.46,1.87v13.29c0,2.03.09,3.19.27,3.46.27.46,1.27.68,3,.68v1.09ZM349.71,55.71c0,.55-.19,1.01-.57,1.39-.38.38-.84.57-1.39.57s-.99-.19-1.34-.57c-.35-.38-.52-.84-.52-1.39,0-.52.18-.96.55-1.34.36-.38.8-.57,1.32-.57s.97.19,1.37.57c.39.38.59.83.59,1.34Z"/>
        <path d="M369.24,82.84c-1.9,1.43-3.75,2.14-5.53,2.14s-2.95-.53-3.58-1.59c-.45-.79-.68-2.11-.68-3.96,0-5.71.03-9.98.09-12.83h-2.46l-.14-.41c1.07-1.24,2.72-3.02,4.92-5.33l.54-.04v3.82h6.19v1.96h-6.19v11.83c0,3.07,1.21,4.6,3.64,4.6.76,0,1.68-.32,2.78-.96l.41.77Z"/>
        <path d="M391.68,83.84c-1.34.35-3.35.7-6,1.04-.15,0-.28-.06-.37-.18v-3.23c-2.61,2.28-5.07,3.41-7.37,3.41-1.3,0-2.34-.39-3.09-1.18-.76-.79-1.14-1.73-1.14-2.82s.33-2.02,1-2.87c1.03-1.33,2.75-2.49,5.17-3.46,1.81-.64,3.63-1.27,5.44-1.91v-2.96c0-1.15-.36-2.09-1.09-2.82-.73-.73-1.65-1.09-2.76-1.09-1.63,0-2.74.26-3.31.77-.33.3-.53.86-.59,1.68s-.23,1.38-.5,1.68c-.67.76-1.33,1.14-2,1.14-.57,0-.86-.35-.86-1.05,0-1.52,1.12-2.94,3.37-4.28,2.03-1.15,3.9-1.73,5.6-1.73,3.46.03,5.19,2.05,5.19,6.05v10.83c0,1.37.47,2.05,1.41,2.05h1.91v.91ZM385.3,79.89v-6.11c-2.81.97-4.56,1.63-5.25,1.99-2.14,1.15-3.21,2.51-3.21,4.08,0,.94.29,1.68.86,2.24.57.56,1.33.84,2.26.84,1.78,0,3.56-1.01,5.34-3.03Z"/>
        <path d="M405.15,84.39h-9.15v-1.09c1.06,0,1.8-.11,2.21-.34.41-.23.62-.77.62-1.62v-24.76c0-1.21-.05-1.97-.14-2.28-.18-.64-.68-1.12-1.5-1.46-.33-.12-.87-.18-1.59-.18v-.96l5.92-1.05c.24,0,.36.64.36,1.91v26.53c0,1.97.12,3.13.36,3.46.3.49,1.27.73,2.91.73v1.09Z"/>
        <path d="M457.51,63.68c0,.85-.46,1.51-1.36,1.97-.76.4-1.59.59-2.5.59-.97,0-2.47-.32-4.5-.96,1.43,1.68,2.15,3.7,2.15,6.08,0,3.11-1.28,6.02-3.84,8.73,2.04,1.52,3.84,2.29,5.39,2.29.76,0,1.71-.44,2.83-1.33l.69.89c-2.5,2.21-4.3,3.32-5.39,3.32-.85,0-2.83-.99-5.94-2.97-3.02,1.98-6.37,2.97-10.06,2.97s-6.7-.82-9.14-2.47c-2.83-1.89-4.25-4.57-4.25-8.04,0-2.29.7-4.27,2.1-5.94,1.4-1.68,3.23-2.7,5.48-3.06-1.62-2.32-2.42-4.14-2.42-5.48,0-1.95.81-3.6,2.42-4.94s3.41-2.01,5.39-2.01c1.49,0,2.82.38,3.98,1.14l-1.1,3.57c-.09-.91-.67-1.62-1.74-2.1-.85-.4-1.8-.59-2.83-.59-1.1,0-2.04.3-2.83.89-.79.59-1.19,1.42-1.19,2.49,0,2.38,2.44,6.11,7.31,11.2,3.29,3.44,6.69,6.57,10.19,9.37,1.86-2.29,2.79-4.6,2.79-6.95,0-2.01-.53-3.81-1.6-5.39-1.19-1.8-2.74-2.7-4.66-2.7-1.01,0-2.01.04-3.02.14l-.82-1.78h4.85c.91,0,2.29.15,4.14.46,1.84.3,3.24.46,4.18.46,1.46,0,2.48-.2,3.06-.59.43-.3,1.04-1.14,1.83-2.51.12.76.26,1.86.41,3.29ZM443.89,81.41c-5.46-4.39-10.13-9.26-14.03-14.63-3.66.73-5.48,2.92-5.48,6.58,0,3.05,1.23,5.55,3.7,7.5,2.25,1.8,4.94,2.7,8.04,2.7,3.66,0,6.25-.71,7.77-2.15Z"/>
        <path d="M500.53,84.39h-10.65v-1.18c2.12,0,3.17-.33,3.14-1,0-.27-1-3.4-3-9.38h-10.92c-1.61,4.98-2.41,7.89-2.41,8.74,0,.79.44,1.29,1.32,1.5.39.09,1.26.14,2.59.14v1.18h-9.88v-1.18c1.18,0,2.09-.3,2.73-.91.48-.46.96-1.29,1.41-2.5l9.6-25.85h1.68l9.65,24.8c.58,1.49.99,2.43,1.23,2.82.64,1.09,1.38,1.64,2.23,1.64h1.27v1.18ZM489.43,71.23l-4.64-13.29-5.01,13.29h9.65Z"/>
        <path d="M524.06,87.62c0,2.58-1.46,4.58-4.37,6.01-2.31,1.09-4.92,1.64-7.83,1.64-2.16,0-3.95-.33-5.37-1-1.91-.91-2.87-2.31-2.87-4.19,0-2.31,1.76-4.1,5.28-5.37-.91-.21-1.68-.58-2.32-1.09-.79-.61-1.18-1.3-1.18-2.09,0-.85.39-1.68,1.18-2.5.15-.12.91-.71,2.28-1.78-2.7-1.27-4.05-3.2-4.05-5.78,0-2.25.71-4.05,2.12-5.42s3.24-2.05,5.48-2.05c.85,0,2.07.22,3.66.66,1.59.44,2.8.66,3.62.66.67,0,1.25-.22,1.75-.66.5-.44.89-.66,1.16-.66.33,0,.5.3.5.91,0,.46-.08.93-.23,1.41-.21.64-.49.96-.82.96-.39,0-.91-.11-1.55-.32-.79-.27-1.3-.42-1.55-.46,1.03,1.21,1.55,2.67,1.55,4.4,0,2.06-.83,3.78-2.5,5.17-1.58,1.27-3.43,1.9-5.55,1.9-.33,0-1.11-.09-2.32-.27-1.18.79-1.78,1.67-1.78,2.64,0,1.18,1.35,1.84,4.05,1.96,4.37.18,6.9.36,7.6.55,2.7.67,4.05,2.26,4.05,4.78ZM521.56,89.07c0-1.37-1-2.43-3-3.19-1.55-.61-3.16-.91-4.82-.91s-3.26.33-4.69,1c-1.82.85-2.73,2.02-2.73,3.5,0,1.58.83,2.76,2.5,3.55,1.27.64,2.79.96,4.55.96,1.88,0,3.61-.36,5.19-1.09,2-.91,3-2.18,3-3.82ZM517.24,71.37c0-1.58-.39-2.96-1.18-4.14-.94-1.33-2.17-2-3.69-2-1.4,0-2.49.56-3.28,1.68-.7,1-1.05,2.23-1.05,3.69,0,1.67.39,3.09,1.18,4.28.91,1.34,2.15,2,3.73,2,1.43,0,2.53-.58,3.32-1.73.64-1,.96-2.26.96-3.78Z"/>
        <path d="M542.72,65.45c0,.55-.12,1.11-.36,1.68-.33.73-.73,1.09-1.18,1.09-.18,0-.5-.2-.96-.59s-1.05-.59-1.78-.59c-1.49,0-2.82.96-4,2.87v9.69c0,1.88.26,2.99.77,3.32.3.24,1.46.36,3.46.36v1.09h-10.1v-1.09h1.14c.58,0,.99-.06,1.23-.18.36-.18.55-.7.55-1.55v-11.42c0-1.18-.05-1.96-.14-2.32-.18-.7-.66-1.2-1.43-1.5-.34-.15-.79-.21-1.34-.18v-.96l5.51-1.32c.27,0,.39.64.36,1.91v2.32c1.33-1.4,2.25-2.29,2.73-2.69,1.18-.94,2.34-1.41,3.46-1.41.46,0,.92.14,1.39.41.47.27.71.62.71,1.05Z"/>
        <path d="M556.88,84.39h-9.15v-1.09c1.33,0,2.06-.03,2.18-.09.42-.18.64-.82.64-1.91v-11.29c0-1.52-.17-2.53-.52-3.05-.35-.52-1.19-.88-2.53-1.09v-.73l5.64-1.14c.3.46.46,1.08.46,1.87v13.29c0,2.03.09,3.19.27,3.46.27.46,1.27.68,3,.68v1.09ZM553.83,55.71c0,.55-.19,1.01-.57,1.39s-.84.57-1.39.57-.99-.19-1.34-.57c-.35-.38-.52-.84-.52-1.39,0-.52.18-.96.55-1.34.36-.38.8-.57,1.32-.57s.97.19,1.37.57c.39.38.59.83.59,1.34Z"/>
        <path d="M582.55,73.51c0,3.06-.96,5.69-2.87,7.87-1.97,2.28-4.48,3.41-7.51,3.41-2.25,0-4.54-.55-6.87-1.64l-1.05,1.37-.73-.14c.27-2.91.41-4.55.41-4.92v-22.89c0-1.46-.12-2.43-.37-2.91-.18-.39-.62-.67-1.29-.82-.37-.09-.91-.15-1.62-.18v-.96l5.87-1.05c.24,0,.36.64.36,1.91v14.88c2.77-2.37,5.31-3.55,7.62-3.55,2.43,0,4.41,1.02,5.93,3.05,1.4,1.85,2.1,4.04,2.1,6.55ZM579.5,75.08c0-2.28-.59-4.27-1.77-5.98-1.34-1.92-3.1-2.88-5.28-2.88-1.67,0-3.52.79-5.55,2.37v11.68c1.21,2.28,3.05,3.42,5.51,3.42,2.21,0,3.99-.91,5.33-2.74,1.18-1.61,1.77-3.57,1.77-5.89Z"/>
        <path d="M609.72,83.84c-1.34.35-3.32.7-5.96,1.04-.15,0-.27-.06-.36-.18v-3.23c-2.68,2.28-5.13,3.41-7.35,3.41-1.83,0-3.27-.67-4.34-2-1-1.24-1.51-2.81-1.51-4.69v-9.47c0-1.85-.49-2.85-1.46-3-.18-.03-.46-.05-.82-.05s-.64-.01-.82-.04v-1.05c.61,0,1.52-.07,2.73-.21,1.21-.14,2.12-.21,2.73-.21.39,0,.59.58.59,1.73v11.67c0,3.57,1.64,5.36,4.92,5.36,1.82,0,3.6-1.02,5.33-3.06v-10.9c0-1.85-.7-2.9-2.09-3.15-.3-.06-.8-.09-1.5-.09v-.96c.21-.03,1.2-.15,2.96-.37,1.21-.15,2.2-.23,2.96-.23.49,0,.73.53.73,1.6v14.04c0,2.07.38,3.11,1.14,3.11h2.14v.91Z"/>
        <path d="M628.01,78.7c0,2.03-.89,3.63-2.68,4.78-1.55,1-3.38,1.5-5.51,1.5-1.79,0-3.64-.38-5.55-1.14l-.55-4.51.59-.41.68,1.5c.97,2.15,2.81,3.23,5.51,3.23,1.27,0,2.37-.33,3.3-1,.93-.67,1.39-1.61,1.39-2.82,0-1.52-.94-2.76-2.82-3.73-1.73-.76-3.46-1.53-5.19-2.32-1.88-1-2.82-2.29-2.82-3.87,0-1.91.79-3.41,2.37-4.51,1.37-.97,3.06-1.46,5.1-1.46,1.88,0,3.52.32,4.92.96l.27,3.6-.68.36c-1-2.43-2.79-3.64-5.37-3.64-1.03,0-1.97.29-2.82.87-.94.64-1.41,1.47-1.41,2.5,0,1.31.97,2.37,2.91,3.19,1.82.73,3.64,1.46,5.46,2.18,1.94,1.12,2.91,2.7,2.91,4.73Z"/>
        <path d="M642.08,84.39h-9.15v-1.09c1.33,0,2.06-.03,2.18-.09.42-.18.64-.82.64-1.91v-11.29c0-1.52-.17-2.53-.52-3.05-.35-.52-1.19-.88-2.53-1.09v-.73l5.64-1.14c.3.46.46,1.08.46,1.87v13.29c0,2.03.09,3.19.27,3.46.27.46,1.27.68,3,.68v1.09ZM639.03,55.71c0,.55-.19,1.01-.57,1.39s-.84.57-1.39.57-.99-.19-1.34-.57c-.35-.38-.52-.84-.52-1.39,0-.52.18-.96.55-1.34.36-.38.8-.57,1.32-.57s.97.19,1.37.57c.39.38.59.83.59,1.34Z"/>
        <path d="M668.98,84.39h-8.69v-1.09c1.21,0,1.87-.01,1.96-.05.51-.15.77-.65.77-1.5v-10.01c0-1.82-.23-3.14-.68-3.96-.64-1.06-1.79-1.59-3.46-1.59-2.03,0-4.1.85-6.19,2.55v10.42c0,2,.11,3.16.32,3.46.34.46,1.37.68,3.09.68v1.09h-9.29v-1.09c1.27,0,1.94-.01,2.01-.05.6-.12.91-.58.91-1.37v-11.74c0-1.18-.05-1.96-.14-2.32-.19-.7-.66-1.2-1.43-1.5-.34-.15-.79-.21-1.34-.18v-.96l5.51-1.32c.24,0,.36.64.36,1.91v1.77c1.76-1.21,3-2.02,3.73-2.41,1.49-.76,2.88-1.14,4.19-1.14,2.52,0,4.14.94,4.87,2.82.42,1.03.64,3.03.64,6.01v6.74c0,1.55.05,2.44.14,2.69.21.7.88,1.05,2,1.05h.73v1.09Z"/>
        <path d="M690.64,80.56c-2.31,2.94-5.04,4.41-8.19,4.41-2.82,0-5.05-.94-6.69-2.82-1.58-1.79-2.37-4.13-2.37-7.01s.77-5.52,2.32-7.65c1.73-2.34,4.02-3.5,6.87-3.5,3.4,0,5.78,1.58,7.15,4.73.36.85.55,1.38.55,1.59,0,.46-.9.82-2.69,1.09-1.09.12-2.2.24-3.32.36l-7.83.91c.06,2.67.74,4.93,2.05,6.78,1.49,2.06,3.47,3.09,5.96,3.09,2,0,3.88-.88,5.64-2.64l.55.64ZM686.77,69.41s-.14-.36-.41-1.18c-.95-2.03-2.42-3.05-4.41-3.05-1.62,0-2.92.67-3.9,2-.86,1.12-1.39,2.55-1.61,4.28l8.49-1.05c1.22-.15,1.84-.49,1.84-1Z"/>
        <path d="M707.98,78.7c0,2.03-.89,3.63-2.68,4.78-1.55,1-3.38,1.5-5.51,1.5-1.79,0-3.64-.38-5.55-1.14l-.55-4.51.59-.41.68,1.5c.97,2.15,2.81,3.23,5.51,3.23,1.27,0,2.37-.33,3.3-1,.93-.67,1.39-1.61,1.39-2.82,0-1.52-.94-2.76-2.82-3.73-1.73-.76-3.46-1.53-5.19-2.32-1.88-1-2.82-2.29-2.82-3.87,0-1.91.79-3.41,2.37-4.51,1.37-.97,3.06-1.46,5.1-1.46,1.88,0,3.52.32,4.92.96l.27,3.6-.68.36c-1-2.43-2.79-3.64-5.37-3.64-1.03,0-1.97.29-2.82.87-.94.64-1.41,1.47-1.41,2.5,0,1.31.97,2.37,2.91,3.19,1.82.73,3.64,1.46,5.46,2.18,1.94,1.12,2.91,2.7,2.91,4.73Z"/>
        <path d="M726.96,78.7c0,2.03-.89,3.63-2.68,4.78-1.55,1-3.38,1.5-5.51,1.5-1.79,0-3.64-.38-5.55-1.14l-.55-4.51.59-.41.68,1.5c.97,2.15,2.81,3.23,5.51,3.23,1.27,0,2.37-.33,3.3-1,.93-.67,1.39-1.61,1.39-2.82,0-1.52-.94-2.76-2.82-3.73-1.73-.76-3.46-1.53-5.19-2.32-1.88-1-2.82-2.29-2.82-3.87,0-1.91.79-3.41,2.37-4.51,1.37-.97,3.06-1.46,5.1-1.46,1.88,0,3.52.32,4.92.96l.27,3.6-.68.36c-1-2.43-2.79-3.64-5.37-3.64-1.03,0-1.97.29-2.82.87-.94.64-1.41,1.47-1.41,2.5,0,1.31.97,2.37,2.91,3.19,1.82.73,3.64,1.46,5.46,2.18,1.94,1.12,2.91,2.7,2.91,4.73Z"/>
      </g>
      <g>
        <path d="M226.94,128c-3.08-.47-5.48-1.51-7.2-3.11-1.72-1.6-3.41-4.24-5.07-7.91l-5.51-13.87L171.65,1.42h-19.56l-27.46,82.25h0c-.02.06-.04.12-.06.19l-1.71,5.11c-3.42,10.19-6.53,18.66-12.1,25.35-6.52,7.82-15.17,11.73-25.96,11.73-11.62,0-20.42-6.13-26.4-18.4-5.99-12.27-8.98-26.76-8.98-43.47,0-15.53,2.49-29.1,7.47-40.71,4.98-11.61,12.62-17.42,22.93-17.42,7.94,0,14.46,2.37,19.56,7.11,5.09,4.74,8.74,9.66,10.93,14.76,2.19,5.1,5.89,14.88,11.11,29.33h3.02V1.07h-3.56c-.48,4.51-1.31,7.97-2.49,10.4-1.19,2.43-3.56,3.64-7.11,3.64l-18.84-10.67c-6.4-2.96-13.99-4.44-22.76-4.44-20.51,0-37.25,6.19-50.22,18.58C6.49,30.96,0,47.05,0,66.85s6.55,35.29,19.65,47.91c13.09,12.62,29.84,18.93,50.22,18.93,18.01,0,31.58-4.68,40.71-14.05,2.93-3.01,5.16-6.13,7.04-9.5h.04s.12-.29.12-.29c2.09-3.81,3.76-7.93,5.49-12.58l2.73-6.25h33.21l6.4,18.84c1.66,4.86,2.49,8.59,2.49,11.2s-.65,4.12-1.96,4.89c-1.31.77-3.44,1.39-6.4,1.87-2.96.48-5.01.74-6.13.8-1.13.06-2.4.09-3.82.09v2.84h84.45v-2.84l-7.29-.71ZM127.03,87.29l15.11-43.73,15.64,43.73h-30.76Z"/>
        <path d="M108.37,56.77c0,1.08-.57,1.9-1.72,2.48-.95.5-2,.75-3.15.75-1.22,0-3.11-.4-5.67-1.21,1.8,2.11,2.71,4.66,2.71,7.66,0,3.92-1.61,7.58-4.84,11,2.57,1.92,4.84,2.88,6.79,2.88.96,0,2.15-.56,3.57-1.67l.86,1.12c-3.15,2.79-5.41,4.18-6.79,4.18-1.08,0-3.57-1.25-7.49-3.74-3.8,2.5-8.02,3.74-12.67,3.74s-8.45-1.04-11.52-3.11c-3.57-2.38-5.35-5.76-5.35-10.13,0-2.88.88-5.37,2.65-7.48,1.77-2.11,4.07-3.4,6.91-3.86-2.04-2.92-3.05-5.22-3.05-6.91,0-2.46,1.02-4.53,3.05-6.22,2.03-1.69,4.3-2.53,6.79-2.53,1.88,0,3.55.48,5.01,1.44l-1.38,4.49c-.12-1.15-.84-2.03-2.19-2.65-1.08-.5-2.27-.75-3.57-.75-1.38,0-2.57.38-3.57,1.12s-1.5,1.79-1.5,3.14c0,2.99,3.07,7.7,9.21,14.11,4.14,4.34,8.42,8.27,12.84,11.8,2.34-2.88,3.51-5.8,3.51-8.75,0-2.53-.67-4.8-2.01-6.79-1.5-2.26-3.46-3.4-5.87-3.4-1.27,0-2.53.06-3.8.17l-1.04-2.25h6.1c1.15,0,2.89.19,5.21.58,2.32.38,4.08.58,5.27.58,1.84,0,3.13-.25,3.86-.75.54-.38,1.3-1.44,2.3-3.17.15.96.33,2.34.52,4.14ZM91.22,79.1c-6.87-5.53-12.76-11.67-17.67-18.42-4.61.92-6.91,3.68-6.91,8.29,0,3.84,1.55,6.99,4.66,9.44,2.84,2.27,6.22,3.4,10.13,3.4,4.61,0,7.87-.9,9.79-2.71Z"/>
      </g>
    </g>
  </g>
</svg>